<svg viewBox="0 0 40 40" xmlns="http://www.w3.org/2000/svg">
  <defs>
    <linearGradient id="tcp-gradient" x1="50%" y1="0%" x2="50%" y2="100%">
      <stop offset="0%" stop-color="#b17dff" />
      <stop offset="100%" stop-color="#6f2ce0" />
    </linearGradient>
  </defs>
  <path d="M20 4C10.611 4 3 10.513 3 18.55c0 4.354 2.004 8.244 5.333 10.957-.228 2.382-1.038 4.698-2.39 6.732a1 1 0 0 0 1.03 1.52c3.44-.45 6.63-1.796 9.372-3.92 1.129.226 2.298.35 3.655.35 9.389 0 17-6.513 17-14.55C37 10.513 29.389 4 20 4z" fill="url(#tcp-gradient)" />
  <rect x="13" y="16" width="14" height="3" rx="1.5" fill="#fff" opacity="0.9" />
  <rect x="13" y="22" width="14" height="3" rx="1.5" fill="#fff" opacity="0.9" />
</svg>
